<svg width="16" height="14" viewBox="0 0 16 14" fill="none" xmlns="http://www.w3.org/2000/svg">
<g clip-path="url(#clip0_1059_7318)">
<path d="M4.9765 3.0997C4.9765 2.7515 4.97511 2.42692 4.9765 2.10235C4.98137 1.1799 5.67582 0.503072 6.6254 0.501048C7.66883 0.498349 8.71156 0.498349 9.75498 0.501048C10.7053 0.503747 11.3983 1.17855 11.4039 2.10235C11.406 2.42692 11.4039 2.7515 11.4039 3.0997C11.4699 3.0997 11.5283 3.0997 11.5874 3.0997C12.3966 3.0997 13.205 3.09835 14.0142 3.0997C14.9978 3.10105 15.6888 3.76977 15.6895 4.72461C15.6909 7.10733 15.6909 9.48937 15.6895 11.8721C15.6888 12.8269 14.9985 13.4977 14.0149 13.4977C10.1324 13.4983 6.24933 13.4983 2.3669 13.4977C1.38465 13.4977 0.692277 12.8256 0.691581 11.8728C0.690191 9.49004 0.690191 7.10733 0.690886 4.72529C0.691581 3.7718 1.38326 3.10172 2.36551 3.0997C3.16911 3.09835 3.97201 3.0997 4.7756 3.0997C4.83608 3.0997 4.89656 3.0997 4.9765 3.0997ZM14.6183 7.77875C14.6183 7.7079 14.6183 7.65999 14.6183 7.61208C14.6183 6.65386 14.619 5.69565 14.6183 4.73676C14.6183 4.3393 14.4104 4.13956 13.9989 4.13956C10.1276 4.13956 6.25558 4.13956 2.38428 4.13956C1.97414 4.13956 1.76281 4.342 1.76281 4.73474C1.76212 5.69295 1.76281 6.65116 1.76281 7.61005C1.76281 7.66269 1.76768 7.71465 1.77115 7.77875C1.84832 7.77875 1.91435 7.77875 1.9797 7.77875C3.31856 7.77875 4.65743 7.7801 5.99629 7.7774C6.20066 7.77673 6.36959 7.84016 6.48637 8.00549C6.60663 8.17621 6.62054 8.35976 6.51765 8.54263C6.40852 8.73629 6.23264 8.81997 6.00602 8.81997C4.6616 8.81862 3.31717 8.81929 1.97275 8.81929C1.9074 8.81929 1.84206 8.81929 1.76281 8.81929C1.76281 8.8888 1.76281 8.94211 1.76281 8.99474C1.76281 9.94756 1.76281 10.9004 1.76281 11.8539C1.76281 12.2621 1.96719 12.4592 2.39123 12.4592C6.25697 12.4592 10.1234 12.4592 13.9892 12.4592C14.4132 12.4592 14.6183 12.2621 14.619 11.8552C14.6197 10.9024 14.619 9.94958 14.619 8.99609C14.619 8.93941 14.619 8.88272 14.619 8.81997C13.9627 8.81997 13.3329 8.81997 12.7024 8.81997C11.9273 8.81997 11.1515 8.82064 10.3764 8.81929C10.1151 8.81862 9.91695 8.69513 9.83423 8.48594C9.6945 8.1337 9.95727 7.78078 10.3667 7.7801C11.7111 7.77808 13.0556 7.77943 14.4 7.77943C14.4653 7.77875 14.5314 7.77875 14.6183 7.77875ZM10.3313 3.09363C10.3313 2.72518 10.3396 2.37361 10.3285 2.02272C10.3201 1.75685 10.09 1.54294 9.81337 1.54159C8.73172 1.53686 7.64936 1.53754 6.56771 1.54159C6.31676 1.54226 6.07971 1.72108 6.06372 1.95861C6.03869 2.3338 6.05677 2.71101 6.05677 3.09363C7.48322 3.09363 8.89786 3.09363 10.3313 3.09363Z" fill="black"/>
<path d="M8.72638 8.30309C8.72638 8.55209 8.72847 8.80109 8.72569 9.05009C8.72221 9.36657 8.4942 9.59803 8.18973 9.59803C7.88594 9.59803 7.65654 9.36522 7.65515 9.04942C7.65307 8.54602 7.65237 8.04262 7.65515 7.53922C7.65724 7.23151 7.88316 7.0041 8.18138 7.00005C8.48586 6.996 8.72082 7.22679 8.7243 7.54057C8.72847 7.79429 8.72638 8.04869 8.72638 8.30309Z" fill="black"/>
</g>
<defs>
<clipPath id="clip0_1059_7318">
<rect width="15" height="13" fill="white" transform="translate(0.69043 0.498535)"/>
</clipPath>
</defs>
</svg>
