<svg width="51" height="47" viewBox="0 0 51 47" fill="none" xmlns="http://www.w3.org/2000/svg">
<path d="M2.46605 16.1441C2.61168 15.3209 2.71999 14.4893 2.90775 13.6757C4.30265 7.63267 9.3804 2.8522 15.4956 1.80271C22.836 0.543803 29.8719 4.30969 32.8037 11.0736C33.012 11.5538 33.2274 12.0424 33.3417 12.5503C33.4464 13.0101 33.6787 13.128 34.1084 13.1545C35.815 13.2628 37.4675 13.6552 39.0152 14.3749C44.6249 16.9854 47.8625 21.3422 48.5232 27.5284C48.806 30.1786 48.3306 32.7265 47.2812 35.1745C47.1716 35.4285 47.1331 35.7583 47.1849 36.0303C47.6206 38.3134 48.0863 40.5905 48.5425 42.87C48.7699 44.0049 47.9925 44.7812 46.8479 44.5562C44.5527 44.106 42.26 43.6427 39.9612 43.2106C39.676 43.1564 39.3269 43.1865 39.0634 43.3033C30.5615 47.0547 20.4686 42.4873 17.727 33.6196C17.5934 33.1863 17.4104 33.031 16.9687 33.0046C15.2453 32.8998 13.606 32.4437 12.0162 31.7781C11.7369 31.6614 11.3759 31.6277 11.0762 31.6843C8.86649 32.1007 6.6628 32.552 4.4555 32.9853C3.37472 33.1971 3.02931 33.0358 2.46605 32.0947C2.46605 31.854 2.46605 31.6145 2.46605 31.3738C2.4853 31.3509 2.51539 31.3304 2.52021 31.3051C2.99079 28.9582 3.46258 26.6113 3.91752 24.262C3.95122 24.0911 3.8778 23.8877 3.81883 23.712C3.50711 22.7612 3.13762 21.8273 2.88007 20.862C2.67306 20.0881 2.59844 19.2806 2.46484 18.4874C2.46605 17.7063 2.46605 16.9252 2.46605 16.1441ZM45.4951 41.5401C45.4855 41.4342 45.4867 41.3776 45.4758 41.3234C45.1352 39.6024 44.8139 37.8777 44.442 36.1638C44.3 35.5103 44.3866 34.9447 44.6719 34.3441C45.7623 32.0477 46.1366 29.6202 45.7755 27.1084C44.7188 19.7668 37.997 14.8154 30.6735 15.9516C22.5123 17.2189 17.55 25.8591 20.5613 33.5594C23.3535 40.6976 31.5196 43.9111 38.446 40.6206C38.8263 40.44 39.3137 40.3847 39.7386 40.4208C40.3921 40.4749 41.0336 40.6603 41.6811 40.7879C42.94 41.0358 44.2001 41.2837 45.4951 41.5401ZM17.0361 30.4097C16.7256 26.0384 17.8232 22.2605 20.4638 18.9797C23.0972 15.7072 26.5489 13.8177 30.7204 13.1906C30.6434 12.9692 30.5928 12.8127 30.5339 12.6611C27.0111 3.48406 14.895 1.27315 8.47052 8.70382C4.79009 12.9595 4.20757 17.7858 6.45338 22.9417C6.65197 23.3979 6.78797 23.8324 6.68446 24.3294C6.48829 25.2694 6.30053 26.2106 6.11278 27.1517C5.92623 28.0857 5.74329 29.0208 5.54712 30.0113C7.46797 29.6322 9.32022 29.2772 11.1677 28.8969C11.6912 28.7885 12.1666 28.8246 12.648 29.0714C13.0729 29.2904 13.5146 29.4986 13.9719 29.6286C14.9576 29.9102 15.959 30.1389 17.0361 30.4097Z" fill="#897ADA" stroke="#897ADA" stroke-width="3"/>
</svg>
