<svg width="20" height="16" viewBox="0 0 20 16" fill="none" xmlns="http://www.w3.org/2000/svg">
<path d="M1.71875 6.75781C1.16647 6.75781 0.71875 7.20553 0.71875 7.75781C0.71875 8.3101 1.16647 8.75781 1.71875 8.75781L1.71875 6.75781ZM19.3555 8.46492C19.7461 8.0744 19.7461 7.44123 19.3555 7.05071L12.9916 0.686746C12.6011 0.296221 11.9679 0.296221 11.5774 0.686746C11.1868 1.07727 11.1868 1.71043 11.5774 2.10096L17.2342 7.75781L11.5774 13.4147C11.1868 13.8052 11.1868 14.4384 11.5774 14.8289C11.9679 15.2194 12.6011 15.2194 12.9916 14.8289L19.3555 8.46492ZM1.71875 8.75781L18.6484 8.75781L18.6484 6.75781L1.71875 6.75781L1.71875 8.75781Z" fill="#07162D"/>
</svg>
