<svg width="18" height="14" viewBox="0 0 18 14" fill="none" xmlns="http://www.w3.org/2000/svg">
<path d="M1.28125 6.41506C0.801787 6.41506 0.413106 6.80374 0.413106 7.2832C0.413106 7.76267 0.801787 8.15135 1.28125 8.15135L1.28125 6.41506ZM17.3241 7.89708C17.6631 7.55804 17.6631 7.00837 17.3241 6.66933L11.7993 1.1445C11.4602 0.805466 10.9106 0.805466 10.5715 1.1445C10.2325 1.48353 10.2325 2.03321 10.5715 2.37224L15.4825 7.2832L10.5715 12.1942C10.2325 12.5332 10.2325 13.0829 10.5715 13.4219C10.9106 13.7609 11.4602 13.7609 11.7993 13.4219L17.3241 7.89708ZM1.28125 8.15135L16.7102 8.15135L16.7102 6.41506L1.28125 6.41506L1.28125 8.15135Z" fill="#07162D"/>
</svg>
