<svg width="17" height="12" viewBox="0 0 17 12" fill="none" xmlns="http://www.w3.org/2000/svg">
<g clip-path="url(#clip0_1059_7313)">
<path d="M16.6313 10.4317C16.5365 10.6631 16.4753 10.9164 16.3399 11.1207C16.0725 11.5243 15.6623 11.7031 15.1829 11.7249C15.1505 11.7266 15.118 11.7257 15.086 11.7257C10.5952 11.7257 6.10398 11.7253 1.61317 11.7262C1.10293 11.7262 0.67699 11.5519 0.360878 11.1405C0.156216 10.8743 0.0650299 10.5679 0.0650299 10.236C0.0630035 7.34719 0.0601666 4.4572 0.0658404 1.56761C0.0674615 0.69344 0.707386 0.078643 1.59574 0.0778324C3.45553 0.0758061 5.31573 0.0770219 7.17552 0.0770219C9.81182 0.0770219 12.4481 0.0770219 15.0844 0.0770219C15.717 0.0770219 16.1977 0.339233 16.483 0.913503C16.5535 1.05535 16.5827 1.21786 16.6309 1.37105C16.6313 4.39155 16.6313 7.41163 16.6313 10.4317ZM1.73799 1.0517C1.78662 1.10439 1.81337 1.13559 1.84255 1.16437C3.65047 2.96337 5.45717 4.76318 7.26752 6.55975C7.91717 7.20454 8.78445 7.19886 9.43734 6.55043C11.2392 4.76075 13.039 2.96864 14.8392 1.17733C14.8741 1.14248 14.9053 1.10398 14.9523 1.0513C10.5397 1.0517 6.15667 1.0517 1.73799 1.0517ZM1.83039 10.7417C6.15789 10.7417 10.5454 10.7417 14.8587 10.7417C13.5237 9.37963 12.1587 7.98712 10.7751 6.57515C10.5364 6.81872 10.3192 7.04972 10.0919 7.27019C9.40533 7.93646 8.59641 8.15612 7.66955 7.91012C7.2428 7.79664 6.88616 7.55874 6.57815 7.24628C6.36336 7.02865 6.14978 6.8094 5.91796 6.57312C4.53315 7.9855 3.1682 9.3776 1.83039 10.7417ZM5.12363 5.92915C3.77772 4.56176 2.40953 3.17127 1.047 1.78727C1.047 4.53217 1.047 7.28235 1.047 10.0828C2.44398 8.65946 3.80974 7.26817 5.12363 5.92915ZM15.6546 1.77835C15.6429 1.77065 15.6311 1.76295 15.619 1.75525C14.2479 3.14777 12.8765 4.54028 11.5002 5.93847C12.8655 7.29491 14.2487 8.67 15.6546 10.0666C15.6546 7.27384 15.6546 4.5261 15.6546 1.77835Z" fill="black"/>
</g>
<defs>
<clipPath id="clip0_1059_7313">
<rect width="16.5687" height="11.6499" fill="white" transform="translate(0.0625 0.0766602)"/>
</clipPath>
</defs>
</svg>
