<svg width="56" height="55" viewBox="0 0 56 55" fill="none" xmlns="http://www.w3.org/2000/svg">
<path d="M55.0273 27.4065C55.0273 42.4368 42.8428 54.6213 27.8125 54.6213C12.7822 54.6213 0.597656 42.4368 0.597656 27.4065C0.597656 12.3762 12.7822 0.19165 27.8125 0.19165C42.8428 0.19165 55.0273 12.3762 55.0273 27.4065Z" fill="#00AC70"/>
<path d="M13.9375 41.1635L15.9939 33.5783C14.8319 31.5123 14.2201 29.1824 14.2171 26.812C14.1858 24.0041 14.9898 21.2502 16.527 18.9002C18.0642 16.5503 20.2653 14.7102 22.8505 13.614C25.4358 12.5177 28.2886 12.2146 31.0465 12.7432C33.8044 13.2719 36.3429 14.6084 38.3396 16.5829C40.3362 18.5575 41.7009 21.081 42.2602 23.8329C42.8194 26.5847 42.5481 29.4407 41.4806 32.038C40.4132 34.6353 38.5978 36.8567 36.265 38.42C33.9323 39.9832 31.1875 40.8178 28.3794 40.8176C26.0297 40.8157 23.7169 40.233 21.6468 39.1214L13.9375 41.1635ZM22.0326 36.2786L22.5183 36.5651C24.2945 37.6139 26.3188 38.1685 28.3815 38.1715C30.6226 38.1463 32.8061 37.4587 34.6573 36.1953C36.5085 34.9319 37.9445 33.1491 38.7847 31.0713C39.625 28.9936 39.8318 26.7137 39.3791 24.5187C38.9265 22.3236 37.8347 20.3115 36.2411 18.7356C34.6475 17.1597 32.6233 16.0905 30.4233 15.6624C28.2234 15.2344 25.9459 15.4667 23.8777 16.3301C21.8095 17.1935 20.0429 18.6494 18.8002 20.5146C17.5576 22.3797 16.8945 24.5708 16.8943 26.812C16.8981 28.8922 17.4795 30.9304 18.5738 32.6994L18.8724 33.183L17.7249 37.4182L22.0326 36.2786Z" fill="white"/>
<path fill-rule="evenodd" clip-rule="evenodd" d="M33.6509 28.7596C33.068 28.4148 32.3089 28.0295 31.6224 28.3081C31.0968 28.5215 30.7593 29.3368 30.4181 29.7536C30.3444 29.8519 30.2376 29.9201 30.1175 29.9457C29.9974 29.9713 29.8721 29.9525 29.7647 29.8929C27.8438 29.1505 26.2293 27.7821 25.1821 26.0088C25.0941 25.8975 25.0524 25.7565 25.0657 25.6152C25.0791 25.474 25.1463 25.3433 25.2535 25.2503C25.643 24.8849 25.9301 24.4238 26.0862 23.913C26.1161 23.3607 25.9869 22.8114 25.714 22.3303C25.4381 21.7421 25.1295 20.9026 24.5323 20.5693C24.2457 20.4377 23.9271 20.3921 23.6151 20.438C23.3031 20.4839 23.0111 20.6194 22.7746 20.828C22.3709 21.1707 22.0499 21.6002 21.8356 22.0845C21.6213 22.5688 21.5193 23.0952 21.5372 23.6245C21.5397 23.9236 21.5771 24.2213 21.6486 24.5118C21.8369 25.2036 22.1261 25.8639 22.507 26.4714C22.7826 26.9376 23.0826 27.3889 23.4059 27.8234C24.4622 29.2563 25.7855 30.4715 27.3031 31.4021C28.0674 31.8741 28.8831 32.2573 29.7342 32.5443C30.6862 32.856 31.5346 33.1793 32.5628 32.9864C33.1117 32.9039 33.6322 32.689 34.0793 32.3602C34.5264 32.0314 34.8868 31.5986 35.1291 31.0993C35.2658 30.7981 35.3074 30.4623 35.2484 30.1368C35.1012 29.4729 34.1939 29.0787 33.6509 28.7575" fill="white"/>
</svg>
