<svg width="11" height="9" viewBox="0 0 11 9" fill="none" xmlns="http://www.w3.org/2000/svg">
<path d="M0.671875 3.81697C0.374738 3.81697 0.133862 4.05784 0.133862 4.35498C0.133862 4.65212 0.374738 4.89299 0.671875 4.89299L0.671875 3.81697ZM10.8131 4.73541C11.0232 4.52531 11.0232 4.18466 10.8131 3.97455L7.38915 0.550651C7.17905 0.340544 6.83839 0.340544 6.62829 0.550651C6.41818 0.760759 6.41818 1.10141 6.62829 1.31152L9.67175 4.35498L6.62829 7.39844C6.41818 7.60855 6.41818 7.9492 6.62829 8.15931C6.83839 8.36942 7.17905 8.36942 7.38915 8.15931L10.8131 4.73541ZM0.671875 4.89299L10.4326 4.89299L10.4326 3.81697L0.671875 3.81697L0.671875 4.89299Z" fill="white"/>
</svg>
